<svg width="24" height="26" viewBox="0 0 24 26" fill="none" xmlns="http://www.w3.org/2000/svg">
<path d="M0 13C0 8.73438 2.25 4.79688 6 2.64062C9.70312 0.484375 14.25 0.484375 18 2.64062C21.7031 4.79688 24 8.73438 24 13C24 17.3125 21.7031 21.25 18 23.4062C14.25 25.5625 9.70312 25.5625 6 23.4062C2.25 21.25 0 17.3125 0 13ZM7.54688 8.96875C6.98438 8.73438 6.32812 9.01562 6.09375 9.57812C5.8125 10.1406 6.09375 10.7969 6.65625 11.0312L7.21875 11.3125C8.01562 11.6406 8.85938 11.875 9.75 12.0625V14.4062C9.75 14.5938 9.70312 14.8281 9.65625 15.0156L8.29688 19.0469C8.10938 19.6094 8.39062 20.2656 9 20.4531C9.60938 20.6406 10.2188 20.3125 10.4062 19.75L11.5781 16.3281C11.625 16.1406 11.8125 16 12 16C12.1875 16 12.3281 16.1406 12.375 16.3281L13.5469 19.75C13.7344 20.3125 14.3906 20.6406 14.9531 20.4531C15.5625 20.2656 15.8906 19.6094 15.6562 19.0469L14.3438 15.0156C14.25 14.7812 14.25 14.5938 14.25 14.4062V12.0625C15.0938 11.875 15.9375 11.6406 16.7344 11.3125L17.2969 11.0781C17.8594 10.7969 18.1406 10.1406 17.9062 9.57812C17.6719 9.01562 16.9688 8.73438 16.4062 8.96875L15.8438 9.20312C14.625 9.76562 13.3125 10 12 10C10.6406 10 9.32812 9.76562 8.10938 9.20312L7.54688 8.96875ZM12 8.5C12.6562 8.5 13.2656 8.17188 13.5938 7.5625C13.9219 7 13.9219 6.29688 13.5938 5.6875C13.2656 5.125 12.6562 4.75 12 4.75C11.2969 4.75 10.6875 5.125 10.3594 5.6875C10.0312 6.29688 10.0312 7 10.3594 7.5625C10.6875 8.17188 11.2969 8.5 12 8.5Z" fill="#202020"/>
</svg>
